<?xml version="1.0" encoding="utf-8"?>
<!-- Generator: Adobe Illustrator 23.1.0, SVG Export Plug-In . SVG Version: 6.00 Build 0)  -->
<svg version="1.1" id="Layer_1" xmlns="http://www.w3.org/2000/svg" xmlns:xlink="http://www.w3.org/1999/xlink" x="0px" y="0px"
	 viewBox="0 0 581 581" style="enable-background:new 0 0 581 581;" xml:space="preserve">
<style type="text/css">
	.st0{fill:#FFFFFF;}
	.st1{fill:#302742;}
</style>
<title>favicon</title>
<path class="st0" d="M581,170.2v240.6c0,94-76.2,170.2-170.2,170.2H170.2C76.2,581,0,504.8,0,410.8V170.2C0,76.2,76.2,0,170.2,0
	h240.6C504.8,0,581,76.2,581,170.2L581,170.2z"/>
<path class="st1" d="M584.8,170.8l2.3,19.3L339.3,436.9c-26.9,26.9-70.6,26.9-97.6,0L115.6,310.8c-26.8-27.1-26.7-70.7,0.4-97.6
	c26.9-26.7,70.3-26.7,97.2,0L249,249l41.5,41.5L532.2,48.8C566.8,81.8,586.5,125.9,584.8,170.8z"/>
</svg>
