<svg xmlns="http://www.w3.org/2000/svg" viewBox="0 0 581.04 581.04"><defs><style>.cls-1{fill:#302742;}.cls-2{fill:#dbded8;}</style></defs><title>favicon</title><g id="Layer_2" data-name="Layer 2"><g id="Layer_1-2" data-name="Layer 1"><path class="cls-1" d="M581,170.25V410.79A170.25,170.25,0,0,1,410.79,581H170.25A170.25,170.25,0,0,1,0,410.79V170.25A170.25,170.25,0,0,1,170.25,0H410.79A170.17,170.17,0,0,1,581,170.25Z"/><path class="cls-2" d="M581,170.25v24.91L339.31,436.89a69,69,0,0,1-97.58,0L115.62,310.78A69,69,0,0,1,213.2,213.2L249,249l41.49,41.49L531.18,49.86A170,170,0,0,1,581,170.25Z"/></g></g></svg>